<svg fill="#d0d0d0" xmlns="http://www.w3.org/2000/svg" version="1.1" x="0px" y="0px" viewBox="0 0 100 100" xml:space="preserve"><path d="M65.9,32.3c0,2.3-1.8,4.1-4.1,4.1c-2.3,0-4.1-1.8-4.1-4.1c0-2.3,1.8-4.1,4.1-4.1C64.1,28.2,65.9,30.1,65.9,32.3z M48.2,28.2  c-2.3,0-4.1,1.8-4.1,4.1c0,2.3,1.8,4.1,4.1,4.1c2.3,0,4.1-1.8,4.1-4.1C52.3,30.1,50.4,28.2,48.2,28.2z M75.4,28.2  c-2.3,0-4.1,1.8-4.1,4.1c0,2.3,1.8,4.1,4.1,4.1c2.3,0,4.1-1.8,4.1-4.1C79.5,30.1,77.7,28.2,75.4,28.2z M98.3,16.4v31.5  c0,5-3.6,9.2-8.3,10.2v9.3c0,1.1-0.5,2.1-1.2,2.9C88,70.9,87,71.3,86,71.3c-1,0-2-0.4-2.8-1.2L71.5,58.4H35.8  c-5.8,0-10.4-4.7-10.4-10.4V16.4c0-5.8,4.7-10.4,10.4-10.4h52C93.6,5.9,98.3,10.6,98.3,16.4z M91,16.4c0-1.7-1.4-3.2-3.2-3.2h-52  c-1.7,0-3.2,1.4-3.2,3.2v31.5c0,1.7,1.4,3.2,3.2,3.2h38.7l8.2,8.2v-8.2h5.2c1.7,0,3.2-1.4,3.2-3.2V16.4z M10,80.9V90  c0,2.2,1.8,4.1,3.9,4.1c1,0,2-0.4,2.7-1.1l11.8-11.8h35.7c5.6,0,10.1-4.4,10.4-9.8l-6-6h-1.2H27.2c-4.8,0-8.8-3.9-8.8-8.8V36v-1.8  v-5.5h-6.3c-5.8,0-10.4,4.7-10.4,10.4v31.5C1.7,75.7,5.3,79.9,10,80.9z"></path></svg>