<svg fill="#d0d0d0" xmlns="http://www.w3.org/2000/svg" version="1.1" x="0px" y="0px" viewBox="0 0 91 91" xml:space="preserve"><g><path d="M51,79.4h10.9v3.3h8.5v6.7h18.9v-3.2H73.5V58.8h13.1v-3.2H73.5v-3.7h-3.2v3.7h-8.5v4.9H60l-7.8-6.9H30L29.8,56   c0,1.6,0.5,3.2,1.4,4.6h-0.7l-5-7.7c-1.7-3.3-5.4-5.9-9.2-4.6l-1.8,0.6c-0.1,0-0.2,0.1-0.3,0.1l-1.6,0.7l0.8,1.4   c-2.8-1.2-6.1-1.1-8.3,1.1l-1.3,1.3c-0.1,0.1-0.2,0.2-0.2,0.3l-1.1,1.3L22,68.6L51,79.4z M17.3,51.3c2.1-0.7,4.4,1.1,5.4,3.2   l2.1,3.2l-6.4-3.7l0.1-0.1l-1.4-2.5L17.3,51.3z M7.3,54.4c1.6-1.6,4.4-1,6.3,0.4l15.6,9H36c0.1,0,0.3,0,0.4,0l11.3,0v-3.2H36.2   c-1.6-0.2-2.9-2.1-3.2-3.7h18l7.8,6.9h3.1v12.5H51.5L23.6,65.9L7.2,54.6L7.3,54.4z"></path><path d="M80.3,79.7c-0.1-0.1-0.1-0.2-0.2-0.2c-0.4-0.4-0.9-0.5-1.4-0.4c-0.1,0-0.2,0.1-0.3,0.1c-0.1,0-0.2,0.1-0.3,0.2   c-0.1,0.1-0.2,0.1-0.2,0.2c-0.3,0.3-0.5,0.7-0.5,1.1c0,0.4,0.2,0.8,0.5,1.1c0.1,0.1,0.2,0.1,0.2,0.2c0.1,0.1,0.2,0.1,0.3,0.2   c0.1,0,0.2,0.1,0.3,0.1c0.1,0,0.2,0,0.3,0c0.4,0,0.8-0.2,1.1-0.5c0.1-0.1,0.1-0.2,0.2-0.2c0.1-0.1,0.1-0.2,0.2-0.3   c0-0.1,0.1-0.2,0.1-0.3c0-0.1,0-0.2,0-0.3c0-0.1,0-0.2,0-0.3c0-0.1-0.1-0.2-0.1-0.3C80.4,79.9,80.3,79.8,80.3,79.7z"></path><path d="M39.1,50.6c8.6,0,15.6-7,15.6-15.6c0-8.6-7-15.6-15.6-15.6c-8.6,0-15.6,7-15.6,15.6C23.5,43.6,30.5,50.6,39.1,50.6z    M33.5,39.2h3.2v0.9c0,0.7,0.6,1.3,1.3,1.3h2.3c0.7,0,1.3-0.6,1.3-1.3v-2c0-0.1-0.2-0.4-0.8-0.9l-4-1.5l0,0l-0.9-0.3   c-1.9-1.2-2.4-2.6-2.4-3.6v-1.9c0-2.4,1.9-4.3,4.2-4.4v-1.7h3.2v1.8c2.2,0.3,3.8,2.1,3.8,4.4v0.9h-3.2v-0.9c0-0.7-0.6-1.3-1.3-1.3   h-2.3c-0.7,0-1.3,0.6-1.3,1.3v1.9c0,0.1,0.2,0.4,0.8,0.8l0.4,0.2l0,0l0.2,0.1l3.6,1.4l0,0l0.7,0.3c2,1.3,2.4,2.7,2.4,3.6v2   c0,2.2-1.7,4.1-3.8,4.4V46h-3.2v-1.5c-2.3-0.1-4.2-2.1-4.2-4.4V39.2z"></path><rect x="24.8" y="11.5" width="3.2" height="9.5"></rect><rect x="31.7" y="2.6" width="3.2" height="13.7"></rect><rect x="38.8" y="10.2" width="3.2" height="6"></rect><rect x="48.3" y="1.1" width="3.2" height="17.4"></rect></g></svg>