<svg fill="#d0d0d0" version="1.1" x="0px" y="0px" xmlns="http://www.w3.org/2000/svg" viewBox="0 0 440 350" preserveAspectRatio="xMidYMid meet"><path d="M95 334 c-70 -36 -95 -79 -95 -164 0 -71 17 -109 63 -144 29 -22 44 -26 105 -26 l71 0 -13 37 c-11 31 -18 37 -36 35 -55 -8 -110 41 -110 98 0 42 15 67 52 86 57 29 138 -10 138 -68 0 -18 -2 -18 -31 -3 -39 21 -54 15 -67 -25 l-11 -31 75 -35 c41 -19 79 -34 83 -34 13 0 41 76 41 111 0 62 -46 136 -102 165 -36 19 -126 18 -163 -2z"></path><path d="M349 327 c-8 -18 -6 -36 8 -79 l19 -57 33 67 c31 62 32 67 15 79 -28 21 -63 16 -75 -10z"></path><path d="M349 84 l-17 -35 35 -14 c45 -19 40 -20 58 15 20 38 20 37 -15 55 -40 20 -43 19 -61 -21z"></path></svg>