<svg fill="#d0d0d0" xmlns="http://www.w3.org/2000/svg" version="1.1" x="0px" y="0px" viewBox="0 0 100 100" xml:space="preserve"><path d="M96.4,46.1H83.1c-1.1,0-1.9,0.9-1.9,1.9v38.4c0,1.1,0.9,1.9,1.9,1.9h13.3c1.1,0,1.9-0.9,1.9-1.9V48  C98.3,46.9,97.4,46.1,96.4,46.1z M94.4,84.5H85V50h9.4V84.5z M55.7,86.4V58.2c0-1.1-0.9-1.9-1.9-1.9H40.4c-1.1,0-1.9,0.9-1.9,1.9  v28.2c0,1.1,0.9,1.9,1.9,1.9h13.3C54.8,88.3,55.7,87.5,55.7,86.4z M42.4,84.5v-3l3,3H42.4z M48.5,84.5l-6.1-6.1v-3.1l9.2,9.2H48.5z   M51.8,81.6l-9.4-9.4v-3.1l9.4,9.4V81.6z M51.8,75.5l-9.4-9.4V63l9.4,9.4V75.5z M51.8,69.3l-9.2-9.2h3.1l6.1,6.1V69.3z M51.8,63.2  l-3-3h3V63.2z M75.1,30.5c1.1,0,1.9,0.9,1.9,1.9v54c0,1.1-0.9,1.9-1.9,1.9H61.8c-1.1,0-1.9-0.9-1.9-1.9v-54c0-1.1,0.9-1.9,1.9-1.9  H75.1z M21.1,26.3L21.1,26.3c-6.6-0.1-5.6-8.8-5.6-8.8c0.3-5.9,5.2-5.8,5.6-5.8c0.5,0,5.4-0.1,5.6,5.8  C26.8,17.4,27.7,26.2,21.1,26.3L21.1,26.3C21.2,26.3,21.2,26.3,21.1,26.3C21.1,26.3,21.1,26.3,21.1,26.3z M21.1,62.3  c0.4,0,0.7,0.3,0.8,0.7l4.4,23.4c0.2,1.2,1.3,2,2.5,1.8c1.1-0.2,1.9-1.2,1.9-2.3L29,55l10.1-8.7c1.7-1.5,1.9-4.1,0.4-5.9l-8.4-9.1  c-0.2-0.3-0.5-0.5-0.8-0.7c-2.3-1.6-5-2.7-5-2.7l-2.3,7.2l-1.3-3.8c2.4-3.3-0.3-3.4-0.6-3.4h0c-0.4,0-3,0.1-0.6,3.4l-1.3,3.8  l-2.3-7.2c0,0-2.6,1.1-5,2.7c-0.3,0.2-0.6,0.4-0.8,0.7l-8.4,9.1c-1.5,1.8-1.3,4.4,0.4,5.9L13.3,55l-1.7,30.8  c-0.1,1.1,0.7,2.1,1.9,2.3c1.2,0.2,2.3-0.6,2.5-1.8l4.4-23.4C20.4,62.5,20.8,62.3,21.1,62.3z M29.9,39.8l4.2,3.8L29,48.8L29.9,39.8z   M8.2,43.6l4.2-3.8l0.9,9L8.2,43.6z"></path></svg>